<svg width="265" height="63" viewBox="0 0 265 63" fill="none" xmlns="http://www.w3.org/2000/svg">
<path d="M1.37438 34.22C88.7184 35.5413 176.093 34.3093 263.398 31.552C264.9 31.504 264.902 29.1707 263.398 29.2187C176.093 31.976 88.7184 33.208 1.37438 31.8867C-0.130953 31.864 -0.12962 34.1973 1.37438 34.22Z" fill="#714E53"/>
<path d="M166.857 32.3828C164.163 20.4841 172.344 7.72948 183.093 3.02681C185.801 15.4988 176.272 26.8455 166.857 32.3828Z" fill="white"/>
<path d="M167.822 32.1171C165.613 20.1691 172.988 8.94515 183.598 3.89048C183.109 3.69182 182.618 3.49182 182.128 3.29315C184.202 15.3545 176.097 25.5025 166.352 31.5198C165.258 32.1958 166.261 33.9251 167.362 33.2465C177.966 26.6985 186.292 15.7518 184.058 2.76115C183.94 2.07715 183.118 1.91182 182.588 2.16382C171.105 7.63448 163.528 19.8518 165.893 32.6478C166.128 33.9158 168.056 33.3771 167.822 32.1171Z" fill="#714E53"/>
<path d="M171.307 33.2728C182.708 33.9301 191.735 43.1701 190.655 54.8434C181.883 50.2501 170.644 46.1221 170.861 34.1621" fill="white"/>
<path d="M171.307 34.2727C182.239 35.1914 190.36 43.7221 189.655 54.8434C190.156 54.5554 190.657 54.2674 191.16 53.9794C182.596 49.5487 172.027 45.3981 171.861 34.1621C171.841 32.8727 169.841 32.8714 169.861 34.1621C170.04 46.2607 180.808 50.8728 190.149 55.7061C190.847 56.0674 191.605 55.6154 191.655 54.8434C192.433 42.5808 183.271 33.2781 171.307 32.2727C170.02 32.1647 170.031 34.1647 171.307 34.2727Z" fill="#714E53"/>
<path d="M186.652 31.7155C182.518 21.1581 193.828 6.23679 204.22 4.58479C205.365 18.9021 197.102 27.9355 186.652 31.7155Z" fill="white"/>
<path d="M187.617 31.4498C184.018 20.5792 193.897 7.73783 204.485 5.5485C204.063 5.22716 203.642 4.90583 203.219 4.5845C203.886 16.7378 197.75 26.3738 186.386 30.7512C185.197 31.2098 185.711 33.1445 186.918 32.6792C199.119 27.9792 205.938 17.6912 205.219 4.5845C205.183 3.9085 204.611 3.4845 203.954 3.6205C192.323 6.0245 181.759 20.1138 185.687 31.9805C186.09 33.1992 188.023 32.6778 187.617 31.4498Z" fill="#714E53"/>
<path d="M195.324 33.4941C207.189 32.8474 214.009 44.5021 213.56 55.0661C204.086 52.6421 196.676 43.4101 195.324 33.4941Z" fill="white"/>
<path d="M195.324 34.4941C206.618 34.2741 212.753 44.7901 212.56 55.0661C212.981 54.7448 213.404 54.4234 213.825 54.1021C204.248 51.3421 197.85 42.8674 196.289 33.2288C196.081 31.9581 194.154 32.4981 194.358 33.7594C196.03 44.0768 203.104 53.0941 213.294 56.0301C213.929 56.2128 214.548 55.7074 214.56 55.0661C214.774 43.6834 207.677 32.2541 195.324 32.4941C194.036 32.5194 194.033 34.5194 195.324 34.4941Z" fill="#714E53"/>
<path d="M208.667 31.7155C207.166 18.8555 214.169 8.67812 226.902 5.91812C227.489 19.7061 217.953 30.5181 208.667 31.7155Z" fill="white"/>
<path d="M209.667 31.7154C208.523 19.4261 215.085 9.80873 227.167 6.88206C226.746 6.56073 226.323 6.24073 225.902 5.91806C226.05 16.7607 219.986 28.7821 208.402 30.7514C207.133 30.9661 207.673 32.8941 208.933 32.6794C221.362 30.5674 228.062 17.5767 227.902 5.91806C227.893 5.25406 227.271 4.79939 226.637 4.95406C213.762 8.07139 206.443 18.5607 207.667 31.7154C207.786 32.9887 209.787 32.9994 209.667 31.7154Z" fill="#714E53"/>
<path d="M215.783 32.8268C226.277 32.3801 241.594 41.8988 238.245 53.0641C230.83 49.8214 215.039 43.2374 215.783 32.8268Z" fill="white"/>
<path d="M215.783 33.8268C225.357 33.7028 240.155 41.2828 237.279 52.7988C237.769 52.6001 238.259 52.4001 238.75 52.2014C230.718 48.6948 216.541 43.4494 216.783 32.8268C216.813 31.5361 214.813 31.5388 214.783 32.8268C214.519 44.4321 228.974 50.1001 237.739 53.9281C238.31 54.1774 239.038 54.0134 239.209 53.3294C242.419 40.4761 226.73 31.6854 215.783 31.8268C214.494 31.8441 214.493 33.8441 215.783 33.8268Z" fill="#714E53"/>
<path d="M230.016 31.3855C227.508 20.6722 239.702 10.9295 249.364 10.7042C248.04 18.6375 239.954 31.8602 230.016 31.3855Z" fill="white"/>
<path d="M230.981 31.1197C229.012 20.7371 239.853 12.2304 249.364 11.7038L248.398 10.4384C246.757 19.0357 239.842 30.4104 230.016 30.3851C228.726 30.3824 228.728 32.3824 230.016 32.3851C240.765 32.4131 248.51 20.4811 250.329 10.9691C250.444 10.3678 250.057 9.66508 249.364 9.70375C238.461 10.3077 226.83 19.9291 229.052 31.6504C229.292 32.9171 231.22 32.3797 230.981 31.1197Z" fill="#714E53"/>
<path d="M240.024 32.3828C251.503 31.2788 264.473 42.2281 262.04 53.7321C255.052 47.9495 242.469 47.0601 240.024 32.3828Z" fill="white"/>
<path d="M240.024 33.3828C250.755 32.7241 263.033 41.7974 261.075 53.4668L262.747 53.0241C259.419 50.4001 255.524 48.7534 251.831 46.7241C245.905 43.4694 242.276 38.8041 240.989 32.1174C240.744 30.8521 238.817 31.3881 239.059 32.6481C240.081 37.9508 242.501 42.6428 246.904 45.9081C251.417 49.2561 256.924 50.9628 261.332 54.4388C261.853 54.8494 262.865 54.8241 263.004 53.9974C265.168 41.0988 252.204 30.6361 240.024 31.3828C238.743 31.4614 238.735 33.4614 240.024 33.3828Z" fill="#714E53"/>
<path d="M99.0332 32.3828C101.727 20.4841 93.5478 7.72948 82.7985 3.02681C80.0878 15.4988 89.6198 26.8455 99.0332 32.3828Z" fill="white"/>
<path d="M99.998 32.6485C102.361 19.8525 94.7873 7.63512 83.3033 2.16445C82.774 1.91112 81.9527 2.07645 81.834 2.76178C79.598 15.7511 87.9247 26.6991 98.5273 33.2458C99.63 33.9258 100.633 32.1951 99.538 31.5191C89.794 25.5031 81.6873 15.3551 83.7633 3.29245C83.274 3.49245 82.7833 3.69112 82.294 3.89112C92.9047 8.94578 100.277 20.1698 98.0687 32.1178C97.8367 33.3778 99.7633 33.9165 99.998 32.6485Z" fill="#714E53"/>
<path d="M94.5853 33.2728C83.1813 33.9301 74.1573 43.1701 75.2373 54.8434C84.0067 50.2501 95.248 46.1221 95.0307 34.1621" fill="white"/>
<path d="M94.5853 32.2727C82.62 33.2781 73.4586 42.5807 74.2373 54.8434C74.2866 55.6154 75.0453 56.0674 75.7426 55.7061C85.0826 50.8728 95.852 46.2607 96.0306 34.1621C96.0506 32.8714 94.0506 32.8727 94.0306 34.1621C93.8653 45.3967 83.2946 49.5474 74.732 53.9794C75.2346 54.2674 75.736 54.5554 76.2373 54.8434C75.532 43.7207 83.652 35.1914 94.5853 34.2727C95.8613 34.1647 95.872 32.1647 94.5853 32.2727Z" fill="#714E53"/>
<path d="M79.2416 33.0494C83.3723 22.4921 72.0643 7.57077 61.6723 5.91877C60.5269 20.2374 68.7883 29.2694 79.2416 33.0494Z" fill="white"/>
<path d="M80.2064 33.3151C84.1304 21.4471 73.569 7.3591 61.9384 4.95377C61.281 4.81777 60.709 5.24177 60.673 5.9191C59.9544 19.0271 66.773 29.3151 78.9757 34.0138C80.181 34.4778 80.6984 32.5431 79.5077 32.0858C68.1424 27.7084 62.0064 18.0724 62.673 5.9191C62.2504 6.24044 61.829 6.56177 61.4064 6.8831C71.9957 9.0711 81.873 21.9124 78.277 32.7844C77.8704 34.0111 79.8024 34.5338 80.2064 33.3151Z" fill="#714E53"/>
<path d="M70.5684 33.4941C58.7004 32.8474 51.8817 44.5021 52.3311 55.0661C61.8057 52.6421 69.2151 43.4101 70.5684 33.4941Z" fill="white"/>
<path d="M70.5684 32.4941C58.2151 32.2541 51.1164 43.6821 51.3311 55.0661C51.3431 55.7074 51.9617 56.2128 52.5964 56.0301C62.7884 53.0954 69.8604 44.0768 71.5337 33.7594C71.7377 32.4981 69.8111 31.9581 69.6031 33.2288C68.0404 42.8674 61.6431 51.3434 52.0657 54.1021C52.4871 54.4234 52.9097 54.7434 53.3311 55.0661C53.1377 44.7888 59.2724 34.2741 70.5684 34.4941C71.8591 34.5194 71.8564 32.5194 70.5684 32.4941Z" fill="#714E53"/>
<path d="M57.2246 33.0494C58.7233 20.1894 51.7233 10.0121 38.9886 7.25344C38.402 21.0414 47.938 31.8521 57.2246 33.0494Z" fill="white"/>
<path d="M58.2246 33.0495C59.4473 19.8948 52.13 9.4055 39.254 6.2895C38.6193 6.13483 37.998 6.5895 37.9886 7.2535C37.8286 18.9122 44.53 31.9028 56.9593 34.0135C58.2193 34.2282 58.7593 32.3002 57.49 32.0855C45.9046 30.1175 39.8406 18.0962 39.9886 7.2535C39.5673 7.57483 39.1446 7.89617 38.7233 8.2175C50.806 11.1428 57.366 20.7602 56.2246 33.0495C56.1046 34.3335 58.106 34.3228 58.2246 33.0495Z" fill="#714E53"/>
<path d="M50.1075 34.1614C39.6141 33.7147 24.2981 43.2334 27.6461 54.3987C35.0621 51.1561 50.8515 44.5707 50.1075 34.1614Z" fill="white"/>
<path d="M50.1075 33.1614C39.1608 33.0188 23.4741 41.8108 26.6821 54.6641C26.8528 55.3481 27.5808 55.5121 28.1515 55.2628C36.9168 51.4361 51.3728 45.7654 51.1075 34.1614C51.0781 32.8734 49.0781 32.8708 49.1075 34.1614C49.3501 44.7841 35.1728 50.0294 27.1408 53.5361C27.6315 53.7348 28.1208 53.9348 28.6115 54.1334C25.7368 42.6174 40.5341 35.0361 50.1075 35.1614C51.3981 35.1788 51.3968 33.1788 50.1075 33.1614Z" fill="#714E53"/>
<path d="M35.8756 33.0495C38.3836 22.3349 26.1916 12.5935 16.5276 12.3682C17.849 20.3002 25.9383 33.5229 35.8756 33.0495Z" fill="white"/>
<path d="M36.8405 33.3151C39.0618 21.5924 27.4312 11.9711 16.5285 11.3684C15.8352 11.3298 15.4485 12.0311 15.5632 12.6338C17.3779 22.1458 25.1285 34.0751 35.8752 34.0498C37.1645 34.0458 37.1658 32.0458 35.8752 32.0498C26.0499 32.0724 19.1325 20.7018 17.4925 12.1018L16.5285 13.3684C26.0379 13.8951 36.8792 22.4004 34.9112 32.7844C34.6725 34.0431 36.5992 34.5818 36.8405 33.3151Z" fill="#714E53"/>
<path d="M25.8679 33.7168C14.3865 32.6128 1.41852 43.5621 3.85186 55.0661C10.8372 49.2848 23.4212 48.3941 25.8679 33.7168Z" fill="white"/>
<path d="M25.8678 32.7167C13.6865 31.9701 0.723837 42.4314 2.88784 55.3314C3.0265 56.1581 4.0385 56.1834 4.55984 55.7727C8.71717 52.4941 13.8772 50.7994 18.2292 47.8034C23.0345 44.4967 25.7425 39.6327 26.8332 33.9821C27.0745 32.7221 25.1478 32.1861 24.9025 33.4514C23.6718 39.8487 20.3892 44.2541 14.8652 47.5967C10.9852 49.9434 6.73184 51.5287 3.14517 54.3581L4.81717 54.7994C2.8585 43.1301 15.1358 34.0594 25.8678 34.7167C27.1572 34.7954 27.1492 32.7954 25.8678 32.7167Z" fill="#714E53"/>
<path d="M231.274 31.0861C234.625 26.8394 237.969 22.5901 241.187 18.2421C241.826 17.3767 240.378 16.5474 239.746 17.4007C236.614 21.6354 233.357 25.7741 230.094 29.9074C229.437 30.7421 230.607 31.9301 231.274 31.0861Z" fill="#714E53"/>
<path d="M210.36 31.2694C212.049 25.6521 216.665 21.5068 219.616 16.5681C220.168 15.6428 218.727 14.8054 218.176 15.7268C215.139 20.8121 210.495 25.0374 208.753 30.8268C208.444 31.8588 210.052 32.2961 210.36 31.2694Z" fill="#714E53"/>
<path d="M188.038 31.0248C190.7 25.8728 194.35 21.3194 196.933 16.1248C197.409 15.1648 195.972 14.3208 195.493 15.2834C192.912 20.4781 189.26 25.0314 186.598 30.1834C186.106 31.1368 187.545 31.9794 188.038 31.0248Z" fill="#714E53"/>
<path d="M168.359 31.9381C168.295 28.8381 170.548 25.4781 171.987 22.8608C173.332 20.4101 174.749 17.7701 176.567 15.6261C177.257 14.8115 176.084 13.6261 175.387 14.4475C173.3 16.9115 171.713 19.8968 170.165 22.7128C168.705 25.3701 166.627 28.7861 166.692 31.9381C166.715 33.0115 168.381 33.0141 168.359 31.9381Z" fill="#714E53"/>
<path d="M241.381 34.2135C245.731 37.4642 250.159 40.6109 254.333 44.0909C255.153 44.7735 256.338 43.6015 255.513 42.9122C251.229 39.3415 246.686 36.1109 242.222 32.7749C241.359 32.1309 240.53 33.5775 241.381 34.2135Z" fill="#714E53"/>
<path d="M216.028 34.4361C220.44 37.8401 226.063 39.8268 229.517 44.3681C230.16 45.2108 231.609 44.3814 230.957 43.5268C227.287 38.7028 221.552 36.6094 216.869 32.9974C216.017 32.3401 215.189 33.7894 216.028 34.4361Z" fill="#714E53"/>
<path d="M196.437 35.4101C200.579 37.1341 204.651 42.1034 206.389 46.1461C206.811 47.1314 208.247 46.2808 207.829 45.3048C205.894 40.8008 201.455 35.7074 196.879 33.8034C195.887 33.3901 195.459 35.0034 196.437 35.4101Z" fill="#714E53"/>
<path d="M171.307 35.1874C176.343 36.8194 180.177 41.7021 183.039 45.9234C183.639 46.8074 185.083 45.9754 184.479 45.0821C181.345 40.4607 177.252 35.3634 171.749 33.5807C170.724 33.2474 170.288 34.8581 171.307 35.1874Z" fill="#714E53"/>
<path d="M35.7988 31.5702C32.5348 27.4356 29.2761 23.2969 26.1428 19.0636C25.5095 18.2089 24.0628 19.0396 24.7028 19.9036C27.9215 24.2529 31.2681 28.5036 34.6188 32.7489C35.2855 33.5916 36.4561 32.4036 35.7988 31.5702Z" fill="#714E53"/>
<path d="M57.1387 32.1615C55.396 26.3722 50.752 22.1468 47.7147 17.0615C47.164 16.1402 45.7213 16.9775 46.2747 17.9028C49.224 22.8415 53.8413 26.9882 55.532 32.6041C55.84 33.6308 57.4493 33.1935 57.1387 32.1615Z" fill="#714E53"/>
<path d="M79.2936 31.5177C76.6323 26.3657 72.9789 21.8123 70.3976 16.6177C69.9189 15.655 68.4816 16.499 68.9576 17.459C71.5403 22.6537 75.1936 27.207 77.8536 32.359C78.3469 33.3137 79.7856 32.471 79.2936 31.5177Z" fill="#714E53"/>
<path d="M99.1999 31.9381C99.2665 28.7661 97.1679 25.3995 95.7265 22.7128C94.2132 19.8901 92.5852 16.9035 90.5052 14.4475C89.8092 13.6261 88.6359 14.8115 89.3265 15.6261C91.1492 17.7768 92.5319 20.4155 93.9065 22.8608C95.3625 25.4528 97.5972 28.8568 97.5332 31.9381C97.5105 33.0141 99.1772 33.0115 99.1999 31.9381Z" fill="#714E53"/>
<path d="M23.6673 34.1086C19.2033 37.4446 14.662 40.6766 10.378 44.2473C9.55264 44.9353 10.738 46.1086 11.558 45.4246C15.7313 41.9459 20.158 38.7993 24.5086 35.5473C25.3593 34.9126 24.5286 33.4646 23.6673 34.1086Z" fill="#714E53"/>
<path d="M49.0201 34.332C44.3388 37.9453 38.6041 40.0373 34.9335 44.86C34.2815 45.716 35.7308 46.5453 36.3735 45.7013C39.8268 41.1613 45.4495 39.176 49.8615 35.7706C50.7001 35.124 49.8708 33.6746 49.0201 34.332Z" fill="#714E53"/>
<path d="M69.0124 33.8033C64.4351 35.706 59.9964 40.8006 58.0604 45.3046C57.6417 46.2806 59.0777 47.1313 59.5004 46.146C61.2377 42.102 65.3124 37.134 69.4551 35.41C70.4324 35.0033 70.0044 33.39 69.0124 33.8033Z" fill="#714E53"/>
<path d="M94.1413 33.5806C88.6386 35.3633 84.544 40.4606 81.4106 45.0819C80.8066 45.9753 82.2506 46.8073 82.8506 45.9233C85.712 41.7019 89.548 36.8193 94.584 35.1873C95.6026 34.8579 95.1666 33.2473 94.1413 33.5806Z" fill="#714E53"/>
<path d="M109.524 29.9394C96.8481 22.8234 113.749 11.2581 117.529 25.2688C117.812 9.92476 137.1 20.3781 127.537 28.3834C138.435 25.9368 135.099 45.2834 124.647 38.3901C128.872 49.9541 110.636 50.3994 112.86 39.9461C109.303 42.6154 102.408 41.7261 101.517 37.2781C100.407 31.4968 105.299 30.3848 109.524 29.9394Z" fill="white"/>
<path d="M110.029 29.0761C106.879 27.1348 103.941 23.4281 107.86 20.5454C111.935 17.5494 115.449 22.0028 116.564 25.5348C116.911 26.6294 118.468 26.3961 118.529 25.2694C119.217 12.6561 134.073 21.0161 126.831 27.6761C126.028 28.4134 126.892 29.5041 127.803 29.3481C136.18 27.9068 133.995 42.8094 125.152 37.5268C124.415 37.0868 123.416 37.8121 123.681 38.6561C126.739 48.3508 112.488 48.6654 113.825 40.2121C113.951 39.4068 113.172 38.5748 112.355 39.0828C109.876 40.6254 107.279 40.8601 104.568 39.6761C101.651 37.1681 101.62 34.6761 104.48 32.1988C105.801 31.3308 108.021 31.1214 109.524 30.9388C110.787 30.7868 110.803 28.7841 109.524 28.9388C105.128 29.4721 98.58 31.5601 100.553 37.5441C102.341 42.9681 108.999 43.5268 113.365 40.8094C112.876 40.4334 112.387 40.0574 111.895 39.6814C110 51.6814 129.559 50.6454 125.612 38.1254C125.12 38.5014 124.631 38.8774 124.141 39.2534C135.916 46.2868 139.592 25.2988 127.272 27.4188C127.596 27.9761 127.92 28.5334 128.244 29.0908C132.404 25.2668 131.833 19.8441 126.729 17.2068C120.592 14.0334 116.827 19.8321 116.529 25.2694L118.495 25.0028C116.839 19.7641 112.348 15.6588 106.851 18.8188C101.075 22.1388 104.933 28.2868 109.019 30.8028C110.12 31.4814 111.124 29.7508 110.029 29.0761Z" fill="#714E53"/>
<path d="M117.758 28.4577C112.49 28.4403 112.236 36.531 118.049 36.383C123.133 36.2377 123.269 28.4577 117.758 28.4577Z" fill="#714E53"/>
<path d="M155.454 29.9394C168.13 22.8234 151.23 11.2581 147.447 25.2688C147.166 9.92476 127.878 20.3781 137.44 28.3834C126.544 25.9368 129.879 45.2834 140.332 38.3901C136.106 49.9541 154.343 50.3994 152.118 39.9461C155.678 42.6154 162.571 41.7261 163.459 37.2781C164.572 31.4968 159.68 30.3848 155.454 29.9394Z" fill="white"/>
<path d="M155.959 30.8028C159.907 28.3708 163.683 22.9041 158.686 19.2295C153.26 15.2388 148.187 19.6121 146.483 25.0028L148.447 25.2695C148.14 19.6175 144.663 14.5681 138.487 17.1055C133.003 19.3588 132.679 25.3628 136.734 29.0908C137.058 28.5335 137.382 27.9761 137.707 27.4188C125.387 25.2988 129.062 46.2868 140.838 39.2535C140.348 38.8775 139.858 38.5015 139.368 38.1255C135.419 50.6455 154.98 51.6801 153.083 39.6815C152.592 40.0575 152.102 40.4335 151.612 40.8095C155.03 42.9335 162.454 43.5268 164.082 38.5815C166.238 32.0308 160.999 29.6108 155.454 28.9401C154.175 28.7841 154.191 30.7868 155.454 30.9401C158.454 31.3028 162.264 31.7148 162.619 35.8135C163.127 41.6935 155.418 40.8201 152.623 39.0828C151.806 38.5748 151.026 39.4068 151.154 40.2121C152.49 48.6655 138.239 48.3508 141.298 38.6561C141.563 37.8121 140.564 37.0868 139.827 37.5268C130.984 42.8095 128.799 27.9068 137.175 29.3481C138.086 29.5041 138.95 28.4135 138.148 27.6761C130.93 21.0388 145.756 12.5788 146.447 25.2695C146.508 26.3975 148.066 26.6295 148.412 25.5348C149.574 21.8588 152.304 18.3681 156.511 20.1961C161.502 22.3668 158.01 27.1921 154.948 29.0761C153.854 29.7508 154.858 31.4815 155.959 30.8028Z" fill="#714E53"/>
<path d="M147.221 28.4577C152.49 28.4403 152.742 36.531 146.929 36.383C141.846 36.2377 141.71 28.4577 147.221 28.4577Z" fill="#714E53"/>
<path d="M132.314 0.581384C125.396 0.558717 125.065 11.4534 132.697 11.2534C139.374 11.0574 139.552 0.581384 132.314 0.581384Z" fill="#714E53"/>
<path d="M116.318 5.40559C111.05 5.38826 110.798 13.4789 116.61 13.3323C121.694 13.1856 121.83 5.40559 116.318 5.40559Z" fill="#714E53"/>
<path d="M148.342 5.40559C143.074 5.38826 142.822 13.4789 148.634 13.3323C153.718 13.1856 153.854 5.40559 148.342 5.40559Z" fill="#714E53"/>
<path d="M132.314 62.703C125.396 62.7257 125.065 51.8324 132.697 52.031C139.374 52.227 139.552 62.703 132.314 62.703Z" fill="#714E53"/>
<path d="M116.318 57.8782C111.05 57.8955 110.798 49.8035 116.61 49.9529C121.694 50.0982 121.83 57.8782 116.318 57.8782Z" fill="#714E53"/>
<path d="M148.342 57.8782C143.074 57.8955 142.822 49.8035 148.634 49.9529C153.718 50.0982 153.854 57.8782 148.342 57.8782Z" fill="#714E53"/>
</svg>
