<svg width="268" height="48" viewBox="0 0 268 48" fill="none" xmlns="http://www.w3.org/2000/svg">
<path d="M2.72851 25.3242C90.5058 26.2042 178.268 24.0122 266.044 23.9909C267.55 23.9896 267.55 21.6562 266.044 21.6576C178.268 21.6789 90.5058 23.8709 2.72851 22.9909C1.22317 22.9762 1.22451 25.3096 2.72851 25.3242Z" fill="#714E53"/>
<path d="M121.498 23.2676C121.103 13.6729 112.157 4.77024 102.973 2.95557C102.271 2.8169 101.489 3.41024 101.743 4.1849C103.201 8.6249 104.419 13.1569 107.165 17.0142C110.246 21.3436 115.151 23.3676 120.233 24.2316C121.493 24.4462 122.033 22.5196 120.763 22.3036C115.438 21.3969 110.971 19.2876 107.978 14.6596C105.838 11.3502 104.887 7.35824 103.673 3.65424C103.262 4.06357 102.853 4.47424 102.442 4.88357C110.727 6.5209 119.138 14.5356 119.498 23.2676C119.551 24.5529 121.551 24.5582 121.498 23.2676Z" fill="#714E53"/>
<path d="M116.674 23.6328C107.178 25.0021 96.1046 31.6888 96.1472 42.3874C96.1499 43.0368 96.7846 43.5248 97.4139 43.3514C106.758 40.7794 116.819 35.1901 117.939 24.5968C118.075 23.3154 116.074 23.3274 115.939 24.5968C114.925 34.2021 105.223 39.1274 96.8819 41.4234C97.3046 41.7448 97.7259 42.0661 98.1472 42.3874C98.1086 32.5714 108.641 26.7968 117.205 25.5608C118.478 25.3781 117.934 23.4514 116.674 23.6328Z" fill="#714E53"/>
<path d="M98.9707 22.748C89.0587 19.4493 83.208 12.604 83.9147 1.91863C83.4933 2.23997 83.0707 2.5613 82.6493 2.88263C90.252 5.70663 97.4973 15.7506 97.7053 23.712C97.7387 24.9986 99.7387 25.0026 99.7053 23.712C99.4693 14.7213 91.6787 4.11063 83.18 0.954634C82.5333 0.713301 81.9533 1.3213 81.9147 1.91863C81.148 13.5133 87.7333 21.1133 98.44 24.676C99.6653 25.084 100.188 23.1533 98.9707 22.748Z" fill="#714E53"/>
<path d="M95.1465 24.0462C84.1625 24.9982 73.2305 32.9542 77.7252 45.1049C77.9292 45.6582 78.6278 46.1089 79.1945 45.7036C86.3078 40.5942 95.9532 34.8876 96.1465 25.0462C96.1718 23.7556 94.1718 23.7582 94.1465 25.0462C93.9705 34.0142 84.6305 39.3462 78.1838 43.9769C78.6745 44.1756 79.1652 44.3756 79.6545 44.5742C75.6425 33.7289 85.3625 26.8942 95.1465 26.0462C96.4212 25.9356 96.4318 23.9356 95.1465 24.0462Z" fill="#714E53"/>
<path d="M49.8887 23.7122C49.9767 14.7642 40.7433 2.95622 31.8073 1.39889C31.1473 1.28289 30.582 1.67089 30.542 2.36289C29.9607 12.6682 37.0113 22.7922 47.29 24.8989C48.5487 25.1562 49.0833 23.2296 47.8207 22.9709C38.358 21.0309 32.0073 11.8376 32.542 2.36289C32.1207 2.68422 31.698 3.00556 31.2767 3.32689C39.3327 4.73089 47.9687 15.6042 47.8887 23.7122C47.8753 25.0029 49.8753 25.0016 49.8887 23.7122Z" fill="#714E53"/>
<path d="M42.3978 24.528C32.0898 26.3893 23.9911 35.6906 26.3538 46.44C26.4911 47.0666 27.2924 47.3626 27.8231 47.0373C35.8084 42.148 43.3124 35.48 43.6631 25.492C43.7084 24.2013 41.7084 24.2066 41.6631 25.492C41.3391 34.7346 34.1471 40.82 26.8138 45.3106C27.3031 45.5093 27.7924 45.7093 28.2831 45.908C26.1418 36.164 33.7564 28.112 42.9284 26.456C44.1978 26.228 43.6578 24.3 42.3978 24.528Z" fill="#714E53"/>
<path d="M25.6152 23.4466C23.9672 12.3773 12.6058 4.87728 2.23251 3.17862C1.61651 3.07728 0.947173 3.43862 0.967173 4.14262C1.11517 9.54662 5.03384 14.4439 8.53384 18.2506C12.7072 22.7906 18.6258 24.5439 24.6498 24.7119C25.9405 24.7493 25.9365 22.7479 24.6498 22.7119C19.0112 22.5546 13.9472 20.8999 9.94851 16.8359C6.81651 13.6533 3.09517 8.80528 2.96717 4.14262C2.54451 4.46395 2.12317 4.78528 1.70051 5.10662C11.4552 6.70395 22.1312 13.5359 23.6858 23.9773C23.8752 25.2506 25.8032 24.7079 25.6152 23.4466Z" fill="#714E53"/>
<path d="M18.1999 24.2689C9.7572 24.6169 -2.20947 34.7075 1.6692 43.9915C1.89186 44.5235 2.56253 45.0169 3.13853 44.5902C9.41453 39.9382 19.5039 34.2809 19.1999 25.2689C19.1572 23.9822 17.1572 23.9782 17.1999 25.2689C17.4732 33.3769 7.76653 38.6849 2.12786 42.8635C2.6172 43.0622 3.10786 43.2622 3.59853 43.4609C0.255862 35.4595 10.9252 26.5689 18.1999 26.2689C19.4852 26.2155 19.4905 24.2155 18.1999 24.2689Z" fill="#714E53"/>
<path d="M149.275 23.2676C149.635 14.5356 158.046 6.5209 166.331 4.88357C165.921 4.47424 165.511 4.06357 165.101 3.65424C163.866 7.41424 162.819 11.2262 160.794 14.6596C158.03 19.3436 153.165 21.4262 148.01 22.3036C146.741 22.5196 147.281 24.4462 148.541 24.2316C153.622 23.3676 158.526 21.3436 161.609 17.0142C164.353 13.1569 165.573 8.6249 167.03 4.1849C167.285 3.41024 166.502 2.8169 165.801 2.95557C156.615 4.77024 147.67 13.6729 147.275 23.2676C147.222 24.5582 149.222 24.5529 149.275 23.2676Z" fill="#714E53"/>
<path d="M151.567 25.5612C160.132 26.7958 170.663 32.5718 170.626 42.3878C171.047 42.0652 171.47 41.7452 171.891 41.4225C163.548 39.1265 153.85 34.2025 152.832 24.5972C152.699 23.3278 150.698 23.3145 150.832 24.5972C151.954 35.1905 162.014 40.7798 171.36 43.3518C171.988 43.5252 172.623 43.0372 172.626 42.3878C172.667 31.6892 161.595 25.0025 152.098 23.6332C150.838 23.4505 150.295 25.3772 151.567 25.5612Z" fill="#714E53"/>
<path d="M170.334 24.0078C181.039 20.4465 187.626 12.8438 186.858 1.25045C186.818 0.653118 186.239 0.0451195 185.591 0.28512C177.093 3.44245 169.305 14.0531 169.069 23.0438C169.034 24.3345 171.034 24.3305 171.069 23.0438C171.277 15.0825 178.521 5.03845 186.123 2.21445C185.701 1.89312 185.279 1.57178 184.858 1.25045C185.566 11.9345 179.714 18.7811 169.803 22.0798C168.585 22.4838 169.107 24.4158 170.334 24.0078Z" fill="#714E53"/>
<path d="M173.627 26.0462C183.411 26.8942 193.128 33.7302 189.118 44.5742C189.607 44.3756 190.099 44.1756 190.588 43.9769C184.142 39.3462 174.803 34.0142 174.627 25.0462C174.602 23.7582 172.602 23.7556 172.627 25.0462C172.82 34.8876 182.464 40.5942 189.578 45.7036C190.143 46.1089 190.843 45.6582 191.047 45.1049C195.542 32.9556 184.611 24.9982 173.627 24.0462C172.342 23.9356 172.352 25.9356 173.627 26.0462Z" fill="#714E53"/>
<path d="M220.883 22.3776C220.806 14.2709 229.439 3.39756 237.495 1.99223C237.074 1.6709 236.651 1.34956 236.23 1.02823C236.767 10.5042 230.414 19.6962 220.953 21.6362C219.689 21.8949 220.225 23.8229 221.483 23.5642C231.761 21.4576 238.814 11.3336 238.23 1.02823C238.19 0.33623 237.625 -0.0504385 236.965 0.0642282C228.029 1.62289 218.798 13.4309 218.883 22.3776C218.895 23.6669 220.895 23.6682 220.883 22.3776Z" fill="#714E53"/>
<path d="M225.846 25.1217C235.019 26.7777 242.632 34.8297 240.491 44.5737C240.983 44.375 241.472 44.1764 241.962 43.9764C234.627 39.4857 227.435 33.4004 227.111 24.1577C227.066 22.8724 225.066 22.867 225.111 24.1577C225.462 34.1457 232.967 40.8137 240.951 45.703C241.483 46.0284 242.283 45.7324 242.422 45.1057C244.782 34.3577 236.686 25.055 226.376 23.1937C225.116 22.9657 224.578 24.8937 225.846 25.1217Z" fill="#714E53"/>
<path d="M245.089 22.6431C246.643 12.2005 257.319 5.36982 267.073 3.77248C266.652 3.45115 266.229 3.12981 265.808 2.80848C265.675 7.59115 261.9 12.1565 258.825 15.5018C255.009 19.6538 249.629 21.2231 244.124 21.3778C242.839 21.4138 242.835 23.4138 244.124 23.3778C250.299 23.2045 255.867 21.3618 260.239 16.9165C263.816 13.2805 267.661 8.09381 267.808 2.80848C267.828 2.10448 267.159 1.74315 266.543 1.84448C256.169 3.54182 244.807 11.0418 243.16 22.1125C242.972 23.3725 244.899 23.9151 245.089 22.6431Z" fill="#714E53"/>
<path d="M250.574 24.9349C257.847 25.2349 268.518 34.1256 265.176 42.1269C265.667 41.9282 266.158 41.7282 266.647 41.5296C261.008 37.3522 251.299 32.0429 251.574 23.9349C251.618 22.6442 249.616 22.6482 249.574 23.9349C249.268 32.9469 259.36 38.6042 265.636 43.2562C266.212 43.6829 266.883 43.1896 267.106 42.6576C270.983 33.3736 259.016 23.2829 250.574 22.9349C249.283 22.8816 249.288 24.8816 250.574 24.9349Z" fill="#714E53"/>
<path d="M24.3144 22.2428C21.8931 21.3734 20.1864 19.2401 18.2104 17.6881C16.0958 16.0281 14.1904 14.1521 11.9491 12.6534C11.0531 12.0534 10.2198 13.4974 11.1078 14.0921C13.6131 15.7668 15.9478 17.8468 18.2091 19.8374C19.9731 21.3894 21.6198 23.0414 23.8718 23.8494C24.8864 24.2134 25.3184 22.6028 24.3144 22.2428Z" fill="#714E53"/>
<path d="M48.4785 22.6783C45.0719 18.949 42.6025 14.477 39.0265 10.893C38.2665 10.1303 37.0879 11.3103 37.8465 12.0703C41.4225 15.6516 43.8945 20.1276 47.2985 23.857C48.0252 24.6516 49.2012 23.4703 48.4785 22.6783Z" fill="#714E53"/>
<path d="M16.89 25.4394C13.0127 27.9967 9.55668 31.0887 6.49135 34.5767C5.78601 35.3807 6.96068 36.5647 7.67135 35.7554C10.6407 32.3741 13.97 29.3594 17.7313 26.8781C18.6247 26.2901 17.79 24.8461 16.89 25.4394Z" fill="#714E53"/>
<path d="M41.4629 25.8841C39.5963 26.8894 38.2869 28.5254 37.0216 30.1867C35.4229 32.2854 33.6296 34.2534 32.2683 36.5241C31.7149 37.4481 33.1576 38.2854 33.7096 37.3654C34.8696 35.4294 36.4029 33.8054 37.7403 31.9987C39.0403 30.2441 40.3389 28.3814 42.3043 27.3227C43.2509 26.8134 42.4096 25.3747 41.4629 25.8841Z" fill="#714E53"/>
<path d="M93.7597 24.9602C90.8451 29.1922 86.3771 31.9936 83.2157 36.0216C82.5611 36.8562 83.7317 38.0442 84.3957 37.2002C87.6464 33.0562 92.1971 30.1616 95.1997 25.8016C95.8104 24.9136 94.3651 24.0816 93.7597 24.9602Z" fill="#714E53"/>
<path d="M98.4577 21.7701C94.8644 19.5741 92.7897 15.8154 90.531 12.3954C89.9404 11.5021 88.4964 12.3368 89.091 13.2368C91.515 16.9074 93.763 20.8541 97.6164 23.2088C98.5364 23.7714 99.3737 22.3288 98.4577 21.7701Z" fill="#714E53"/>
<path d="M119.864 21.4563C116.779 18.6043 114.561 15.003 111.637 12.0043C110.887 11.2337 109.708 12.4123 110.457 13.1817C113.384 16.1817 115.599 19.783 118.684 22.635C119.473 23.363 120.655 22.187 119.864 21.4563Z" fill="#714E53"/>
<path d="M116.83 24.4654C114.375 25.3881 112.665 27.2614 110.802 29.0321C108.593 31.1321 106.051 32.5787 104.21 35.0787C103.573 35.9454 105.021 36.7747 105.65 35.9201C107.118 33.9267 109.085 32.6387 110.969 31.0841C113.025 29.3881 114.71 27.0361 117.273 26.0721C118.269 25.6974 117.838 24.0867 116.83 24.4654Z" fill="#714E53"/>
<path d="M244.9 22.5149C246.919 21.7909 248.475 20.3922 250.043 18.9735C252.444 16.8042 254.976 14.5575 257.663 12.7575C258.551 12.1629 257.718 10.7175 256.822 11.3189C254.83 12.6522 253.062 14.2442 251.24 15.7962C249.186 17.5482 247.032 19.9855 244.458 20.9082C243.454 21.2682 243.886 22.8789 244.9 22.5149Z" fill="#714E53"/>
<path d="M221.473 22.5227C224.879 18.7934 227.351 14.3187 230.925 10.7361C231.684 9.97475 230.505 8.79608 229.745 9.55741C226.169 13.1427 223.7 17.6147 220.293 21.3441C219.571 22.1361 220.747 23.3187 221.473 22.5227Z" fill="#714E53"/>
<path d="M251.042 25.5442C254.804 28.0269 258.132 31.0389 261.102 34.4202C261.813 35.2295 262.988 34.0455 262.282 33.2415C259.217 29.7549 255.761 26.6642 251.884 24.1055C250.984 23.5109 250.149 24.9549 251.042 25.5442Z" fill="#714E53"/>
<path d="M226.467 25.9882C228.432 27.0456 229.736 28.9082 231.035 30.6642C232.371 32.4722 233.904 34.0949 235.064 36.0309C235.616 36.9509 237.057 36.1136 236.504 35.1896C235.14 32.9162 233.333 30.9709 231.752 28.8522C230.507 27.1842 229.165 25.5496 227.308 24.5496C226.361 24.0402 225.52 25.4789 226.467 25.9882Z" fill="#714E53"/>
<path d="M173.574 25.8014C176.576 30.1627 181.127 33.0574 184.379 37.2001C185.044 38.0454 186.214 36.8574 185.559 36.0214C182.396 31.9947 177.928 29.1934 175.014 24.9601C174.408 24.0814 172.963 24.9134 173.574 25.8014Z" fill="#714E53"/>
<path d="M171.156 22.5404C175.01 20.1844 177.258 16.2377 179.684 12.5684C180.278 11.6684 178.834 10.835 178.244 11.727C175.985 15.147 173.908 18.9044 170.314 21.1017C169.4 21.6604 170.237 23.103 171.156 22.5404Z" fill="#714E53"/>
<path d="M150.087 22.6348C153.172 19.7841 155.391 16.1814 158.316 13.1828C159.065 12.4121 157.889 11.2334 157.136 12.0041C154.212 15.0028 151.995 18.6054 148.907 21.4561C148.116 22.1868 149.297 23.3628 150.087 22.6348Z" fill="#714E53"/>
<path d="M151.501 26.0722C153.855 26.9575 155.481 29.0295 157.301 30.6695C159.274 32.4495 161.518 33.7389 163.122 35.9202C163.751 36.7762 165.199 35.9455 164.562 35.0789C162.875 32.7882 160.643 31.2775 158.478 29.4909C156.299 27.6922 154.669 25.4895 151.943 24.4655C150.935 24.0869 150.505 25.6975 151.501 26.0722Z" fill="#714E53"/>
<path d="M71.4759 24.1575C83.3545 22.8242 73.4145 6.09754 66.9132 17.4242C70.1852 4.00554 51.0039 10.0175 57.4905 19.1762C48.5652 14.5482 45.7025 30.8175 56.3799 27.2149C50.0519 36.3095 65.8212 40.8775 66.2799 31.2695C68.7665 34.4069 74.9692 35.2135 76.7625 31.5455C79.0545 26.7695 75.0532 25.5135 71.4759 24.1575Z" fill="white"/>
<path d="M71.7416 25.1217C76.7429 24.3577 79.5816 20.227 76.9509 15.539C74.0109 10.2977 68.5216 12.943 66.0496 16.9204C66.6589 17.1764 67.2696 17.4337 67.879 17.6897C68.9456 12.6857 67.0709 7.81905 61.219 8.75505C55.775 9.62438 53.8003 15.3377 56.627 19.6804C57.083 19.2244 57.539 18.7684 57.995 18.3124C53.895 16.4124 49.6003 17.851 48.6203 22.5457C47.5296 27.7657 52.5403 29.399 56.6456 28.179L55.5163 26.7097C49.0776 36.8497 66.203 42.2937 67.279 31.2697L65.5723 31.9764C68.1336 34.7524 74.6336 36.8404 77.1776 32.7684C80.4763 27.4884 76.2936 24.9084 71.7416 23.1937C70.5323 22.7377 70.015 24.671 71.211 25.1217C74.023 26.1817 79.459 29.0817 74.5776 32.4457C72.215 34.0724 68.6189 32.331 66.987 30.563C66.3416 29.8644 65.3576 30.4644 65.279 31.2697C64.5403 38.8364 52.4603 35.251 57.243 27.719C57.7136 26.9777 56.939 26.0057 56.1136 26.251C47.7283 28.7417 50.059 16.8297 56.9856 20.039C57.823 20.427 58.9483 19.5857 58.3536 18.671C53.4643 11.1564 68.2483 6.38438 65.9483 17.159C65.7136 18.2604 67.1643 18.9137 67.7763 17.9284C73.1549 9.27505 80.599 21.7577 71.211 23.1937C69.9376 23.387 70.4816 25.315 71.7416 25.1217Z" fill="#714E53"/>
<path d="M64.6504 20.1477C69.2397 21.341 67.6064 28.4397 62.5811 26.9797C58.1904 25.6877 59.8557 18.885 64.6504 20.1477Z" fill="#714E53"/>
<path d="M197.295 24.1575C185.419 22.8242 195.358 6.09754 201.859 17.4242C198.588 4.00554 217.771 10.0175 211.282 19.1762C220.207 14.5482 223.071 30.8175 212.394 27.2149C218.722 36.3095 202.954 40.8775 202.491 31.2695C200.007 34.4069 193.803 35.2135 192.011 31.5455C189.716 26.7695 193.719 25.5135 197.295 24.1575Z" fill="white"/>
<path d="M197.56 23.1933C188.175 21.7573 195.618 9.2746 200.995 17.9293C201.607 18.9146 203.058 18.2613 202.823 17.1586C200.524 6.38394 215.311 11.1573 210.419 18.6706C209.822 19.5853 210.95 20.4266 211.787 20.0386C218.712 16.8293 221.044 28.7426 212.659 26.2506C211.834 26.0053 211.059 26.9773 211.531 27.7199C216.312 35.2506 204.234 38.8359 203.491 31.2693C203.412 30.4653 202.428 29.8626 201.784 30.5626C199.867 32.6413 196.888 33.6546 194.196 32.4453C191.386 31.1839 192.366 27.6733 194.331 26.4773C195.323 25.8733 196.479 25.5293 197.56 25.1213C198.755 24.6706 198.238 22.7373 197.03 23.1933C192.475 24.9106 188.299 27.4879 191.595 32.7693C194.138 36.8399 200.64 34.7519 203.199 31.9759L201.491 31.2693C202.572 42.2933 219.696 36.8493 213.256 26.7106L212.128 28.1786C216.328 29.4266 220.79 27.8933 220.188 22.8106C219.606 17.8919 214.806 16.4453 210.776 18.3119C211.234 18.7679 211.69 19.2239 212.144 19.6799C215.04 15.2333 213.039 10.4119 208.043 8.86927C201.999 7.0026 199.862 12.8493 200.894 17.6906C201.503 17.4333 202.112 17.1759 202.722 16.9199C200.344 13.0919 195.32 10.3839 192.127 15.0893C188.966 19.7453 191.838 24.3279 197.03 25.1213C198.29 25.3146 198.832 23.3879 197.56 23.1933Z" fill="#714E53"/>
<path d="M204.122 20.1477C199.534 21.341 201.168 28.4397 206.194 26.9797C210.584 25.6877 208.919 18.885 204.122 20.1477Z" fill="#714E53"/>
<path d="M143.119 25.3509C156.2 25.5496 148.284 8.90556 139.002 18.0962C143.815 5.92156 124.056 7.03356 129.81 18.6589C122.436 11.8256 116.28 27.0522 127.531 26.4202C119.012 33.5042 131.39 42.6149 135.996 31.6269C137.559 35.3149 143.323 37.7416 146.028 34.6829C149.507 30.6869 146.206 27.6096 143.119 25.3509Z" fill="white"/>
<path d="M143.119 26.3509C147.569 26.2856 153.051 23.3029 150.411 18.0562C147.766 12.8056 141.954 13.9869 138.295 17.3882L139.967 18.3616C141.73 13.4936 139.861 8.31623 134.054 8.45223C128.022 8.5949 126.857 14.6029 128.946 19.1629C129.47 18.7602 129.993 18.3549 130.517 17.9522C127.285 15.1869 122.47 15.1989 120.809 19.7296C119.013 24.6242 122.978 27.5189 127.531 27.4202L126.823 25.7122C123.77 28.4669 122.017 33.3522 125.895 36.3256C130.278 39.6842 134.874 36.4109 136.861 32.1309H135.134C137.093 35.9349 141.937 38.4656 145.91 36.1189C151.543 32.7896 146.975 27.0189 143.625 24.4882C142.594 23.7096 141.599 25.4469 142.614 26.2136C145.226 28.1882 149.075 33.0962 143.674 34.9709C140.962 35.9122 137.962 33.2589 136.861 31.1229C136.535 30.4896 135.446 30.4482 135.134 31.1229C133.791 34.0162 131.259 36.8709 127.822 35.2296C124.023 33.4149 125.954 29.1869 128.238 27.1269C128.889 26.5402 128.378 25.4016 127.531 25.4202C118.639 25.6122 123.403 14.4909 129.102 19.3656C129.989 20.1242 131.147 19.1909 130.673 18.1549C129.11 14.7456 129.759 10.8482 134.054 10.4522C138.625 10.0309 139.258 14.4589 138.037 17.8296C137.678 18.8242 139.025 19.4389 139.709 18.8029C142.314 16.3816 146.25 15.0176 148.474 18.6496C150.838 22.5096 146.133 24.3069 143.119 24.3509C141.83 24.3696 141.829 26.3696 143.119 26.3509Z" fill="#714E53"/>
<path d="M137.383 20.4726C141.491 22.8446 138.026 29.2526 133.571 26.5086C129.683 24.0939 133.097 17.9793 137.383 20.4726Z" fill="#714E53"/>
</svg>
