<svg width="255" height="349" viewBox="0 0 255 349" fill="none" xmlns="http://www.w3.org/2000/svg">
<mask id="mask0_674_2847" style="mask-type:alpha" maskUnits="userSpaceOnUse" x="0" y="0" width="255" height="349">
<rect width="255" height="349" fill="#D9D9D9"/>
</mask>
<g mask="url(#mask0_674_2847)">
<path d="M62.1707 -149.877C62.1707 -149.877 13.769 -54.0316 124.498 43.7937C235.227 141.619 184.839 275.801 184.839 275.801" stroke="#a7b99d" stroke-width="2" stroke-miterlimit="10"/>
<path d="M185.601 273.078C185.601 273.078 176.919 275.034 170.278 279.698C163.637 284.37 171.746 284.448 176.919 283.001C169.893 291.28 174.148 295.263 180.514 288.729C182.319 296.632 190.672 295.153 188.694 288.291C194.11 296.883 201.128 293.847 185.609 273.078H185.601Z" fill="#a7b99d"/>
<path d="M181.566 283.619C181.644 283.658 181.715 283.697 181.778 283.752C182.296 284.159 182.39 284.902 181.982 285.419C161.753 311.258 145.653 316.462 138.007 313.066C134.609 311.548 132.842 308.269 133.502 304.536C135.409 293.831 168.425 281.052 172.178 279.636C172.79 279.409 173.481 279.714 173.708 280.324C173.944 280.935 173.63 281.623 173.018 281.858C163.158 285.591 137.254 297.008 135.841 304.959C135.37 307.604 136.477 309.803 138.973 310.914C144.491 313.363 159.367 310.452 180.098 283.971C180.451 283.525 181.056 283.392 181.55 283.634L181.566 283.619Z" fill="#a7b99d"/>
<path d="M190.35 283.76C190.585 283.869 190.774 284.057 190.899 284.307C191.001 284.519 201.363 305.71 205.884 322.057C208.451 331.322 206.457 339.883 201.151 342.411C199.126 343.381 193.709 344.688 187.343 335.861C176.754 321.181 182.798 288.338 183.065 286.952C183.191 286.311 183.811 285.888 184.454 286.006C185.106 286.123 185.522 286.749 185.404 287.391C185.341 287.719 179.281 320.617 189.282 334.476C192.971 339.586 197.022 341.754 200.13 340.275C203.702 338.569 206.128 331.831 203.592 322.691C199.126 306.555 188.866 285.56 188.764 285.348C188.474 284.761 188.717 284.049 189.313 283.76C189.651 283.595 190.036 283.603 190.357 283.76H190.35Z" fill="#a7b99d"/>
<path d="M184.329 284.98C184.369 285.004 184.416 285.027 184.455 285.051C185.004 285.403 185.169 286.139 184.808 286.694C171.581 307.197 167.083 332.34 171.322 342.082C172.405 344.571 174.007 346.026 176.071 346.402C179.117 346.958 181.582 346.472 183.387 344.954C187.132 341.816 187.124 335.243 187.124 335.18C187.124 334.523 187.65 333.991 188.301 333.983C188.961 333.983 189.494 334.5 189.502 335.157C189.502 335.47 189.526 342.904 184.926 346.77C182.547 348.765 179.423 349.43 175.64 348.742C172.782 348.218 170.529 346.245 169.132 343.029C163.998 331.236 170.262 304.849 182.806 285.411C183.136 284.902 183.788 284.73 184.321 284.98H184.329Z" fill="#a7b99d"/>
<path d="M170.969 316.556L171 316.572C171.581 316.877 171.809 317.589 171.511 318.168C166.542 327.715 159.249 334.539 152.475 335.979C149.029 336.714 145.834 336.01 143.22 333.944C134.797 327.277 142.93 312.854 143.283 312.244C143.612 311.673 144.358 311.485 144.908 311.806C145.481 312.127 145.677 312.855 145.347 313.426C145.269 313.559 137.874 326.69 144.696 332.089C146.752 333.709 149.202 334.249 151.972 333.662C157.978 332.387 164.815 325.876 169.391 317.072C169.689 316.501 170.388 316.274 170.969 316.548V316.556Z" fill="#a7b99d"/>
<path d="M183.16 282.914C183.427 283.048 183.678 283.196 183.905 283.384L184.023 283.509C191.818 294.833 196.363 324.311 196.551 325.563C196.598 325.884 196.379 326.189 196.049 326.236C195.719 326.283 195.421 326.064 195.374 325.735C195.327 325.43 190.703 295.412 183.089 284.253C177.806 280.223 158.08 295.56 150.897 301.821C150.654 302.04 150.277 302.008 150.057 301.766C149.845 301.515 149.869 301.148 150.112 300.929C152.75 298.628 175.42 279.182 183.16 282.914Z" fill="#a7b99d"/>
<path d="M182.948 284.527C183.584 284.832 184.047 285.951 184.282 289.308V289.457L184.227 289.597C178.026 302.987 178.615 329.914 178.623 330.188C178.63 330.516 178.371 330.79 178.042 330.798C177.712 330.798 177.437 330.548 177.429 330.219C177.398 329.108 176.825 302.924 183.081 289.245C182.901 286.812 182.61 285.982 182.461 285.708C182.092 286.107 181.488 287.492 181.079 288.909L181.056 288.995L181.009 289.073C180.318 290.137 163.92 315.186 155.717 320.516C155.442 320.696 155.073 320.617 154.893 320.343C154.712 320.069 154.791 319.702 155.065 319.522C162.852 314.467 178.96 290.036 179.965 288.502C180.781 285.716 181.668 284.354 182.61 284.448C182.728 284.456 182.838 284.487 182.948 284.542V284.527Z" fill="#a7b99d"/>
<path d="M52.2325 134.357C52.2325 134.357 43.5507 136.313 36.9098 140.977C30.2689 145.649 38.3777 145.727 43.5507 144.28C36.5251 152.559 40.7797 156.542 47.1459 150.008C48.9513 157.912 57.3035 156.433 55.3253 149.57C60.7417 158.162 67.7594 155.126 52.2404 134.357H52.2325Z" fill="#a7b99d"/>
<path d="M48.1899 144.898C48.2684 144.937 48.3391 144.976 48.4019 145.031C48.92 145.438 49.0142 146.181 48.606 146.698C28.3771 172.537 12.2772 177.741 4.63153 174.345C1.23257 172.827 -0.533626 169.548 0.125755 165.815C2.03325 155.11 35.0494 142.331 38.8016 140.915C39.4139 140.688 40.1047 140.993 40.3323 141.603C40.5678 142.214 40.2538 142.902 39.6415 143.137C29.7822 146.87 3.87795 158.287 2.46499 166.238C1.994 168.883 3.10082 171.082 5.59705 172.193C11.1154 174.642 25.9908 171.731 46.722 145.25C47.0753 144.804 47.6797 144.671 48.1742 144.914L48.1899 144.898Z" fill="#a7b99d"/>
<path d="M56.9815 145.039C57.217 145.148 57.4054 145.336 57.531 145.587C57.633 145.798 67.9947 166.989 72.5162 183.336C75.0831 192.602 73.0892 201.163 67.7828 203.69C65.7575 204.66 60.3412 205.967 53.975 197.14C43.3857 182.46 49.43 149.617 49.6969 148.231C49.8225 147.59 50.4426 147.167 51.0863 147.285C51.7378 147.402 52.1539 148.028 52.0361 148.67C51.9733 148.998 45.9133 181.896 55.9139 195.755C59.6033 200.865 63.6538 203.033 66.7623 201.554C70.3339 199.848 72.7595 193.11 70.224 183.97C65.7575 167.834 55.4979 146.839 55.3958 146.627C55.1054 146.04 55.3487 145.328 55.9453 145.039C56.2828 144.874 56.6675 144.882 56.9893 145.039H56.9815Z" fill="#a7b99d"/>
<path d="M50.9533 146.26C50.9925 146.283 51.0396 146.306 51.0789 146.33C51.6284 146.682 51.7932 147.418 51.4321 147.973C38.2053 168.476 33.7073 193.619 37.9462 203.361C39.0295 205.85 40.6308 207.305 42.6953 207.681C45.741 208.237 48.2059 207.752 50.0113 206.233C53.7557 203.095 53.7478 196.522 53.7478 196.459C53.7478 195.802 54.2738 195.27 54.9253 195.262C55.5847 195.262 56.1185 195.779 56.1263 196.436C56.1263 196.749 56.1498 204.183 51.5499 208.049C49.1714 210.044 46.0472 210.71 42.2636 210.021C39.4063 209.497 37.1534 207.525 35.7561 204.308C30.6224 192.515 36.8865 166.128 49.4304 146.69C49.7601 146.181 50.4117 146.009 50.9454 146.26H50.9533Z" fill="#a7b99d"/>
<path d="M37.6008 177.835L37.6322 177.851C38.2131 178.156 38.4407 178.868 38.1424 179.447C33.1735 188.994 25.8811 195.818 19.1067 197.258C15.6607 197.993 12.4658 197.289 9.85182 195.223C1.42901 188.556 9.56138 174.134 9.91462 173.523C10.2443 172.952 10.99 172.764 11.5395 173.085C12.1126 173.406 12.3088 174.134 11.9791 174.705C11.9006 174.838 4.50612 187.969 11.3276 193.368C13.3842 194.988 15.8333 195.528 18.6043 194.941C24.6094 193.666 31.4466 187.155 36.023 178.351C36.3213 177.78 37.0199 177.553 37.6008 177.827V177.835Z" fill="#a7b99d"/>
<path d="M49.7915 144.194C50.0584 144.327 50.3096 144.475 50.5372 144.663L50.6549 144.788C58.4498 156.112 62.9948 185.59 63.1832 186.842C63.2303 187.163 63.0105 187.468 62.6808 187.515C62.3511 187.562 62.0528 187.343 62.0057 187.014C61.9586 186.709 57.3351 156.691 49.7208 145.532C44.4379 141.502 24.7114 156.839 17.5289 163.1C17.2855 163.319 16.9088 163.288 16.689 163.045C16.477 162.795 16.5006 162.427 16.7439 162.208C19.3814 159.907 42.0516 140.461 49.7915 144.194Z" fill="#a7b99d"/>
<path d="M49.5718 145.806C50.2076 146.111 50.6707 147.23 50.9062 150.587V150.736L50.8513 150.877C44.6499 164.266 45.2387 191.193 45.2465 191.467C45.2544 191.796 44.9953 192.069 44.6656 192.077C44.336 192.077 44.0612 191.827 44.0534 191.498C44.022 190.387 43.4489 164.203 49.7052 150.524C49.5247 148.091 49.2342 147.261 49.0851 146.987C48.7161 147.386 48.1117 148.771 47.7035 150.188L47.68 150.274L47.6329 150.352C46.9421 151.416 30.5439 176.466 22.3409 181.795C22.0661 181.975 21.6972 181.896 21.5167 181.623C21.3361 181.349 21.4146 180.981 21.6893 180.801C29.4763 175.746 45.5841 151.315 46.5888 149.781C47.4052 146.995 48.2922 145.633 49.2342 145.727C49.352 145.735 49.4619 145.767 49.5718 145.821V145.806Z" fill="#a7b99d"/>
<path d="M180.082 30.5531C180.082 30.5531 178.45 39.2785 180.122 47.2056C181.794 55.1327 185.075 47.7377 185.789 42.4321C190.632 52.1356 195.986 49.8193 192.493 41.4148C200.492 42.8859 202.431 34.6615 195.327 33.7537C205.382 32.1965 205.366 24.5667 180.09 30.5609L180.082 30.5531Z" fill="#a7b99d"/>
<path d="M188.199 38.4177C188.262 38.3629 188.333 38.3159 188.403 38.2768C188.984 37.9638 189.706 38.1751 190.02 38.7463C205.822 67.489 204.244 84.2902 198.09 89.9479C195.35 92.4599 191.622 92.7807 188.45 90.6913C179.337 84.7127 180.632 49.428 180.812 45.4292C180.844 44.7719 181.401 44.2711 182.053 44.2945C182.712 44.3258 183.214 44.8736 183.191 45.5309C182.728 56.0326 182.995 84.2667 189.761 88.7115C192.014 90.1905 194.471 90.0497 196.481 88.2029C200.924 84.118 204.126 69.3436 187.932 39.8888C187.657 39.388 187.783 38.7776 188.199 38.4255V38.4177Z" fill="#a7b99d"/>
<path d="M191.81 30.4279C192.006 30.2636 192.257 30.154 192.532 30.1384C192.767 30.1306 216.387 29.0272 233.241 31.3513C242.786 32.666 249.89 37.8777 250.126 43.7389C250.22 45.9848 249.278 51.4548 238.626 53.7946C220.909 57.6838 193.05 39.1532 191.873 38.3629C191.331 37.9951 191.182 37.2595 191.551 36.7117C191.92 36.1639 192.658 36.0231 193.207 36.3909C193.49 36.5787 221.396 55.1484 238.124 51.4782C244.286 50.1244 247.889 47.2682 247.755 43.8406C247.598 39.8966 242.347 35.0136 232.927 33.7146C216.293 31.4217 192.893 32.5095 192.658 32.5173C191.998 32.5486 191.441 32.0478 191.409 31.3904C191.386 31.0148 191.551 30.6627 191.818 30.4357L191.81 30.4279Z" fill="#a7b99d"/>
<path d="M190.546 36.43C190.546 36.43 190.625 36.3674 190.664 36.3439C191.213 35.9761 191.951 36.1248 192.312 36.6648C205.963 56.8934 227.354 70.9557 238.006 70.9322C240.73 70.9322 242.7 70.0323 243.87 68.295C245.589 65.7205 246.115 63.279 245.432 61.0252C244.027 56.3535 237.967 53.7633 237.904 53.7398C237.299 53.4894 237.017 52.7929 237.268 52.1904C237.527 51.58 238.218 51.2983 238.822 51.5565C239.113 51.6817 245.966 54.6006 247.708 60.3366C248.603 63.3024 247.983 66.4248 245.848 69.6175C244.239 72.0277 241.53 73.3033 238.006 73.3189C225.109 73.3502 203.279 57.1751 190.334 38.0029C189.997 37.5021 190.091 36.8291 190.538 36.4457L190.546 36.43Z" fill="#a7b99d"/>
<path d="M214.354 61.1504L214.378 61.127C214.888 60.7122 215.634 60.7905 216.05 61.2991C222.879 69.6253 226.278 79.0002 224.928 85.7692C224.237 89.2123 222.33 91.8651 219.394 93.438C209.919 98.5089 199.848 85.3622 199.424 84.7988C199.032 84.2745 199.149 83.5154 199.66 83.1398C200.185 82.7485 200.931 82.8503 201.324 83.3746C201.418 83.492 210.586 95.4648 218.264 91.3487C220.571 90.1044 222.031 88.0777 222.589 85.3075C223.782 79.3054 220.493 70.4705 214.197 62.8016C213.789 62.3008 213.852 61.573 214.339 61.1504H214.354Z" fill="#a7b99d"/>
<path d="M188.183 36.6804C188.411 36.4848 188.646 36.3204 188.913 36.1874L189.078 36.1326C202.595 33.472 231.545 40.9766 232.778 41.2974C233.092 41.3835 233.288 41.7043 233.202 42.0252C233.115 42.346 232.794 42.5338 232.472 42.4477C232.173 42.3695 202.69 34.7241 189.392 37.283C183.591 40.5227 189.91 64.6484 192.838 73.7102C192.94 74.0232 192.768 74.3519 192.454 74.4536C192.14 74.5553 191.802 74.3832 191.708 74.0702C190.632 70.7444 181.684 42.2912 188.183 36.6882V36.6804Z" fill="#a7b99d"/>
<path d="M189.58 37.5177C190.114 37.056 191.323 37.0717 194.51 38.1907L194.651 38.2376L194.753 38.355C204.636 49.3341 229.677 59.4445 229.928 59.5462C230.234 59.6636 230.384 60.0157 230.258 60.3209C230.132 60.6261 229.787 60.7748 229.481 60.6496C228.445 60.2349 204.095 50.3983 193.968 39.2706C191.661 38.4724 190.774 38.4098 190.467 38.4333C190.687 38.9341 191.723 40.0297 192.869 40.9687L192.94 41.0235L192.987 41.0939C193.694 42.1504 210.28 67.0664 211.944 76.6917C211.999 77.0203 211.78 77.3255 211.458 77.3803C211.136 77.4351 210.83 77.216 210.767 76.8951C209.189 67.7629 193.058 43.3555 192.037 41.8295C189.792 39.9827 188.89 38.6289 189.353 37.8073C189.408 37.7055 189.478 37.6116 189.573 37.5334L189.58 37.5177Z" fill="#a7b99d"/>
<path d="M86.0414 -147.89C86.0414 -147.89 153.008 35.2092 52.2246 138.325" stroke="#a7b99d" stroke-width="2" stroke-miterlimit="10"/>
<path d="M70.1301 -176.976C70.1301 -176.976 65.4909 -20.9848 182.186 32.5566" stroke="#a7b99d" stroke-width="2" stroke-miterlimit="10"/>
<path d="M196.245 133.872C189.635 129.709 184.698 124.481 182.147 119.09L181.833 118.425L182.453 118.018C182.774 117.806 215.265 97.4916 254.098 136.274L255 137.174L253.823 137.659C231.679 146.768 210.225 142.683 196.245 133.872ZM184.03 119.066C191.959 134.404 221.631 148.38 251.978 136.572C217.518 102.891 188.67 116.515 184.03 119.066Z" fill="#a7b99d"/>
<path d="M195.083 126.97C191.59 124.763 187.947 122.228 183.905 119.356L183.3 118.925L183.975 118.62C198.647 112.063 218.091 120.35 218.248 120.451C218.444 120.577 218.507 120.835 218.381 121.038C218.255 121.242 218.004 121.289 217.808 121.179C217.494 121.03 199.267 113.236 185.004 119.098C204.165 132.675 214.228 138.575 244.717 136.446C244.945 136.431 245.157 136.603 245.172 136.838C245.188 137.072 245.015 137.276 244.78 137.292C220.045 139.013 208.632 135.507 195.075 126.962L195.083 126.97Z" fill="#a7b99d"/>
<path d="M68.2147 131.423C68.7171 123.644 70.9464 116.82 74.471 112.008L74.9105 111.413L75.5621 111.765C75.8996 111.945 109.363 130.624 93.8442 183.195L93.4831 184.416L92.494 183.618C73.8587 168.609 67.1628 147.887 68.2225 131.43L68.2147 131.423ZM75.3972 113.635C65.7028 127.925 67.6259 160.58 92.5647 181.474C105.69 135.179 79.8716 116.476 75.3972 113.635Z" fill="#a7b99d"/>
<path d="M73.7252 127.095C73.9921 122.979 74.4788 118.581 75.0675 113.667L75.1539 112.931L75.7426 113.377C88.5534 123.073 90.5787 144.053 90.563 144.241C90.5473 144.475 90.3432 144.647 90.1155 144.64C89.8879 144.632 89.7152 144.436 89.7152 144.209C89.6995 143.857 87.8234 124.184 75.8211 114.52C73.058 137.792 72.689 149.429 89.1814 175.08C89.307 175.276 89.2521 175.542 89.0558 175.667C88.8596 175.793 88.5927 175.738 88.4671 175.542C75.0911 154.734 72.7047 143.067 73.7252 127.103V127.095Z" fill="#a7b99d"/>
<path d="M201.135 220.421C198.584 213.049 198.003 205.897 199.384 200.098L199.557 199.378L200.295 199.449C200.68 199.488 238.782 203.839 244.819 258.304L244.96 259.563L243.736 259.211C220.736 252.536 206.528 236.001 201.135 220.413V220.421ZM200.868 201.249C197.461 218.167 211.873 247.544 242.974 257.216C237.15 209.457 206.088 202.141 200.868 201.249Z" fill="#a7b99d"/>
<path d="M204.542 214.301C203.192 210.404 201.943 206.155 200.578 201.397L200.374 200.685L201.096 200.873C216.662 204.887 226.662 223.465 226.717 223.637C226.796 223.856 226.678 224.099 226.451 224.177C226.223 224.255 226.003 224.146 225.917 223.934C225.768 223.621 216.411 206.186 201.598 201.89C208.058 224.427 212.227 235.297 237.37 252.615C237.558 252.748 237.613 253.014 237.479 253.201C237.346 253.397 237.079 253.444 236.891 253.311C216.489 239.264 209.77 229.42 204.534 214.301H204.542Z" fill="#a7b99d"/>
<path d="M143.07 209.09L141.846 209.442L141.987 208.182C148.023 153.717 186.126 149.358 186.511 149.327L187.249 149.257L187.422 149.977C188.803 155.775 188.222 162.928 185.671 170.299C180.278 185.887 166.07 202.422 143.07 209.097V209.09ZM143.824 207.094C174.925 197.422 189.345 168.038 185.93 151.127C180.702 152.019 149.648 159.344 143.824 207.094Z" fill="#a7b99d"/>
<path d="M182.264 164.18C183.614 160.283 184.862 156.033 186.228 151.276L186.432 150.563L185.71 150.751C170.144 154.766 160.143 173.343 160.089 173.515C160.01 173.735 160.128 173.977 160.355 174.055C160.583 174.134 160.803 174.024 160.889 173.813C161.038 173.5 170.395 156.065 185.208 151.769C178.747 174.306 174.579 185.175 149.436 202.493C149.248 202.626 149.193 202.892 149.326 203.08C149.46 203.275 149.727 203.322 149.915 203.189C170.317 189.143 177.036 179.298 182.272 164.18H182.264Z" fill="#a7b99d"/>
<path d="M30.8654 97.4055L29.6016 97.2412L30.2374 96.1378C57.6096 48.6141 94.2837 59.8044 94.6448 59.9218L95.3513 60.1487L95.2178 60.8765C94.166 66.7456 90.7592 73.0685 85.4684 78.8045C74.2746 90.9417 54.6267 100.442 30.8654 97.3977V97.4055ZM32.3568 95.8795C64.745 99.401 89.7387 78.2176 93.3967 61.3539C88.2472 60.094 56.8403 54.4284 32.3568 95.8795Z" fill="#a7b99d"/>
<path d="M84.8013 71.8478C87.6037 68.8115 90.4532 65.4153 93.6088 61.5965L94.0798 61.0252L93.3497 60.9078C77.4696 58.3802 60.8595 71.433 60.7339 71.566C60.5769 71.7382 60.5848 72.0043 60.7575 72.1686C60.9302 72.3329 61.1814 72.3173 61.3462 72.1608C61.6131 71.9338 77.1713 59.6792 92.4784 61.6434C77.5246 79.7279 69.3451 88.0307 39.3511 93.8841C39.1235 93.931 38.9743 94.1501 39.0136 94.3849C39.0607 94.6118 39.2805 94.7605 39.516 94.7214C63.8424 89.9714 73.9529 83.625 84.817 71.8556L84.8013 71.8478Z" fill="#a7b99d"/>
<path d="M182.531 206.703L182.947 207.438C183.159 207.798 203.341 244.077 166.682 269.596L165.968 270.096L165.709 269.267C159.759 250.298 176.644 212.705 181.942 207.313L182.531 206.711V206.703ZM166.682 268.031C198.419 245.329 184.941 214.27 182.264 208.878C176.738 215.89 161.918 250.259 166.682 268.031Z" fill="#a7b99d"/>
<path d="M175.686 206.351C179.925 206.351 182.5 207.11 182.586 207.141C182.924 207.251 183.112 207.603 183.002 207.939C182.892 208.276 182.539 208.464 182.202 208.354C181.911 208.26 153.252 199.864 128.187 242.058C140.606 245.501 170.694 227.025 175.388 218.543C175.561 218.238 175.945 218.12 176.259 218.292C176.565 218.464 176.683 218.848 176.51 219.161C171.455 228.293 139.703 247.731 127.01 243.021L126.295 242.755L126.68 242.097C144.923 210.929 165.301 206.351 175.686 206.351Z" fill="#a7b99d"/>
<path d="M143.392 240.016C143.518 240.016 143.651 240.055 143.761 240.133C144.052 240.336 144.122 240.728 143.918 241.017C143.863 241.088 138.839 248.553 143.863 264.509C156.894 264.501 164.665 258.296 164.736 258.233C165.01 258.006 165.411 258.053 165.638 258.319C165.858 258.593 165.819 258.992 165.552 259.219C165.215 259.493 157.239 265.91 143.392 265.785H142.929L142.788 265.346C137.316 248.42 142.646 240.618 142.874 240.29C143 240.117 143.196 240.023 143.392 240.023V240.016Z" fill="#a7b99d"/>
<path d="M182.61 208.526L182.673 208.777C188.89 234.538 176.989 253.702 176.864 253.898C176.777 254.031 176.605 254.07 176.471 253.984C176.338 253.898 176.299 253.726 176.385 253.593C176.503 253.405 188.199 234.554 182.178 209.168C166.361 211.398 150.08 220.992 142.749 228.927C142.639 229.044 142.458 229.052 142.348 228.943C142.231 228.833 142.223 228.653 142.333 228.536C149.774 220.483 166.337 210.749 182.366 208.565L182.626 208.534L182.61 208.526Z" fill="#a7b99d"/>
<path d="M181.88 208.471L181.864 208.972C181.597 219.13 173.481 245.157 173.402 245.423C173.355 245.572 173.198 245.658 173.041 245.611C172.892 245.564 172.805 245.407 172.853 245.251C172.931 244.993 180.765 219.873 181.268 209.457C171.487 214.912 162.962 221.955 157.836 226.188C156.392 227.378 155.261 228.317 154.421 228.951C154.296 229.044 154.115 229.021 154.021 228.896C153.927 228.771 153.95 228.591 154.076 228.497C154.9 227.871 156.038 226.932 157.475 225.75C162.687 221.438 171.416 214.223 181.432 208.714L181.872 208.471H181.88Z" fill="#a7b99d"/>
<path d="M174.454 221.947C174.524 221.947 174.595 221.97 174.65 222.025C174.768 222.135 174.775 222.315 174.666 222.424C164.265 233.669 149.931 257.349 149.782 257.591C149.703 257.725 149.523 257.771 149.389 257.685C149.256 257.607 149.209 257.427 149.295 257.294C149.436 257.059 163.802 233.325 174.25 222.033C174.305 221.97 174.383 221.939 174.462 221.939L174.454 221.947Z" fill="#a7b99d"/>
<path d="M172.114 227.808C172.114 227.808 172.193 227.808 172.232 227.832C172.373 227.894 172.436 228.066 172.373 228.207C165.458 243.537 158.723 256.167 158.652 256.292C158.581 256.433 158.401 256.48 158.267 256.41C158.126 256.339 158.079 256.159 158.15 256.026C158.22 255.901 164.94 243.287 171.855 227.972C171.902 227.863 172.004 227.808 172.114 227.808Z" fill="#a7b99d"/>
<path d="M164.32 229.326C164.406 229.326 164.485 229.365 164.548 229.436C164.642 229.561 164.626 229.741 164.5 229.835C164.383 229.929 152.741 239.17 149.798 245.454C149.727 245.595 149.562 245.658 149.421 245.595C149.28 245.525 149.217 245.36 149.28 245.22C152.278 238.818 163.661 229.78 164.147 229.397C164.202 229.357 164.265 229.334 164.328 229.334L164.32 229.326Z" fill="#a7b99d"/>
<path d="M178.426 116.061C178.426 116.061 203.404 171.802 180.412 211.688" stroke="#a7b99d" stroke-width="2" stroke-miterlimit="10"/>
<path d="M115.902 87.7647C121.201 93.1564 138.085 130.75 132.135 149.718L131.876 150.548L131.162 150.047C94.5035 124.528 114.685 88.2498 114.897 87.8899L115.313 87.1543L115.902 87.7568V87.7647ZM115.58 89.3376C112.903 94.7293 99.4253 125.788 131.162 148.49C135.927 130.718 121.106 96.3413 115.58 89.3376Z" fill="#a7b99d"/>
<path d="M122.151 86.8178C117.912 86.8178 115.337 87.5769 115.251 87.6082C114.913 87.7177 114.725 88.0699 114.835 88.4064C114.944 88.7428 115.298 88.9307 115.635 88.8211C115.926 88.7272 144.585 80.3305 169.65 122.525C157.231 125.968 127.143 107.492 122.449 99.0098C122.276 98.7046 121.892 98.5872 121.578 98.7594C121.271 98.9315 121.154 99.315 121.326 99.628C126.382 108.76 158.134 128.199 170.827 123.488L171.541 123.222L171.157 122.564C152.914 91.3956 132.536 86.8178 122.151 86.8178Z" fill="#a7b99d"/>
<path d="M154.444 120.475C154.319 120.475 154.185 120.514 154.075 120.592C153.785 120.796 153.714 121.187 153.918 121.477C153.973 121.547 158.997 129.012 153.973 144.968C140.943 144.961 133.171 138.755 133.101 138.692C132.826 138.465 132.426 138.512 132.198 138.778C131.978 139.052 132.017 139.451 132.284 139.678C132.622 139.952 140.597 146.369 154.444 146.244H154.907L155.049 145.806C160.52 128.879 155.19 121.077 154.962 120.749C154.837 120.577 154.641 120.483 154.444 120.483V120.475Z" fill="#a7b99d"/>
<path d="M115.227 88.9854L115.164 89.2358C108.947 114.997 120.847 134.161 120.973 134.357C121.059 134.49 121.232 134.529 121.365 134.443C121.499 134.357 121.538 134.185 121.452 134.052C121.334 133.864 109.638 115.013 115.659 89.6271C131.476 91.8574 147.756 101.451 155.088 109.386C155.198 109.504 155.379 109.511 155.488 109.402C155.606 109.292 155.614 109.112 155.504 108.995C148.063 100.943 131.5 91.2079 115.47 89.0246L115.211 88.9933L115.227 88.9854Z" fill="#a7b99d"/>
<path d="M115.957 88.9306L115.973 89.4315C116.24 99.5888 124.356 125.616 124.435 125.882C124.482 126.031 124.639 126.117 124.796 126.07C124.945 126.023 125.031 125.867 124.984 125.71C124.906 125.452 117.072 100.332 116.569 89.9166C126.35 95.3709 134.875 102.414 140.001 106.647C141.445 107.837 142.576 108.776 143.416 109.41C143.541 109.504 143.722 109.48 143.816 109.355C143.91 109.23 143.887 109.05 143.761 108.956C142.937 108.33 141.798 107.391 140.362 106.209C135.15 101.897 126.421 94.6823 116.404 89.1732L115.965 88.9306H115.957Z" fill="#a7b99d"/>
<path d="M123.375 102.414C123.304 102.414 123.234 102.437 123.179 102.492C123.061 102.602 123.053 102.782 123.163 102.891C133.564 114.136 147.898 137.816 148.047 138.059C148.125 138.192 148.306 138.239 148.439 138.152C148.573 138.074 148.62 137.894 148.534 137.761C148.392 137.526 134.027 113.792 123.579 102.5C123.524 102.437 123.446 102.406 123.367 102.406L123.375 102.414Z" fill="#a7b99d"/>
<path d="M125.722 108.275C125.722 108.275 125.643 108.275 125.604 108.299C125.463 108.361 125.4 108.533 125.463 108.674C132.378 124.004 139.114 136.634 139.184 136.76C139.255 136.9 139.435 136.947 139.569 136.877C139.71 136.806 139.757 136.626 139.687 136.493C139.616 136.368 132.897 123.754 125.981 108.439C125.934 108.33 125.832 108.275 125.722 108.275Z" fill="#a7b99d"/>
<path d="M133.509 109.785C133.423 109.785 133.344 109.824 133.281 109.895C133.187 110.02 133.203 110.2 133.328 110.294C133.446 110.388 145.087 119.63 148.031 125.913C148.102 126.054 148.266 126.117 148.408 126.054C148.549 125.984 148.612 125.82 148.549 125.679C145.55 119.278 134.168 110.239 133.682 109.856C133.627 109.817 133.564 109.793 133.501 109.793L133.509 109.785Z" fill="#a7b99d"/>
<path d="M117.417 92.1547C105.399 71.3079 106.027 48.982 109.803 29.7002" stroke="#a7b99d" stroke-width="2" stroke-miterlimit="10"/>
</g>
</svg>
