<svg width="120" height="35" viewBox="0 0 120 35" fill="none" xmlns="http://www.w3.org/2000/svg">
<g clip-path="url(#clip0_674_2778)">
<path d="M0.599985 15.6199C15.53 11.2999 31.22 16.0099 45.76 19.6199C53.22 21.4699 60.79 23.1099 68.5 23.2899C75.27 23.4499 82.08 22.4399 88.53 20.3899C95.71 18.1099 103.01 14.5799 108.5 9.32994C108.88 8.96994 108.38 8.28994 107.93 8.58994C102.16 12.4999 96.35 16.1199 89.74 18.4499C83.13 20.7799 76.28 21.9599 69.35 21.9299C53.92 21.8499 39.47 15.4799 24.32 13.4299C16.38 12.3499 8.13999 12.6799 0.519985 15.3099C0.319985 15.3799 0.399985 15.6899 0.609985 15.6299H0.599985V15.6199Z" fill="#a7b99d"/>
<path d="M19.3599 13.75C20.1899 11.94 21.0899 10.32 22.4899 8.88998C23.8899 7.45998 25.6199 6.26998 27.4499 5.38998C31.7499 3.30998 36.7299 2.90998 41.4099 2.46998L40.9099 1.80998C38.6899 10.69 27.9699 12.79 20.1899 13.36C19.9999 13.37 19.9999 13.67 20.1899 13.66C24.9899 13.37 29.9299 13.16 34.2699 10.88C37.7799 9.03998 40.7899 5.95998 41.8999 2.08998C41.9899 1.78998 41.7399 1.39998 41.3999 1.42998C36.4099 1.90998 31.3699 2.44998 26.7699 4.57998C23.1599 6.24998 19.3699 9.29998 18.2899 13.31C18.1299 13.91 19.0599 14.36 19.3299 13.75H19.3599Z" fill="#a7b99d"/>
<path d="M22.3998 14.05C22.8298 15.25 23.2998 16.25 23.9898 17.34C24.5998 18.31 25.2498 19.26 25.9298 20.18C27.2298 21.95 28.6498 23.65 30.4198 24.97C34.3198 27.89 39.7698 28.83 44.5098 29.27C45.1498 29.33 45.3698 28.6 45.1698 28.13C43.8298 25.04 41.8198 22.2 39.2898 19.97C38.0398 18.87 36.6798 17.9 35.2198 17.09C34.4998 16.69 33.7498 16.32 33.0398 15.89C32.3298 15.46 31.6798 14.84 30.8798 14.52C30.5198 14.38 30.1398 14.8 30.2498 15.15C30.6998 16.49 32.3598 17.25 33.5298 17.85C35.0798 18.65 36.5698 19.49 37.9098 20.61C40.5198 22.79 42.5498 25.53 43.7698 28.71L44.4998 27.75C40.0498 27.21 34.8598 26.4 31.1598 23.68C29.4498 22.42 28.0598 20.74 26.7998 19.04C26.1398 18.15 25.5198 17.24 24.8498 16.35C24.1498 15.41 23.4298 14.7 22.5498 13.94C22.4798 13.88 22.3498 13.94 22.3898 14.03L22.3998 14.05Z" fill="#a7b99d"/>
<path d="M48.6501 19.74C51.0501 15.73 54.5401 12.65 58.8401 10.79C61.3101 9.71995 63.9901 9.05995 66.6701 8.73995C68.0301 8.56995 69.4101 8.48995 70.7801 8.44995C72.1501 8.40995 73.9301 8.15995 75.1901 8.62995L74.7501 7.84995C74.2201 10.15 71.8401 11.42 70.0101 12.7C68.0401 14.08 66.0001 15.34 63.8401 16.39C59.1501 18.67 54.3401 19.48 49.1701 18.89C48.4501 18.81 48.3001 19.99 49.0001 20.15C54.4101 21.4 60.3001 19.75 65.1401 17.32C67.6101 16.08 69.9401 14.56 72.1701 12.93C73.7901 11.74 76.3302 10.18 75.9802 7.83995C75.9302 7.49995 75.5002 7.30995 75.2002 7.39995C74.4202 7.61995 73.4201 7.45995 72.6201 7.46995C71.8202 7.47995 71.0901 7.48995 70.3301 7.51995C68.9201 7.57995 67.5101 7.70995 66.1101 7.90995C63.3901 8.29995 60.7301 8.95995 58.2101 10.07C53.9501 11.94 50.0001 15.16 48.3001 19.59C48.2201 19.81 48.5601 19.94 48.6701 19.75L48.6501 19.74Z" fill="#a7b99d"/>
<path d="M56.3398 21.48C57.5998 25.71 62.1398 28.73 66.0198 30.29C71.3998 32.46 77.3798 32.33 83.0498 31.76C83.4998 31.71 83.7898 31.37 83.6898 30.92C83.3798 29.4 82.1798 28.48 80.9598 27.64C79.2698 26.48 77.4598 25.49 75.5798 24.67C73.8398 23.91 72.0698 23.29 70.1798 23.01C68.2898 22.73 66.3098 22.1 64.4498 22.25C64.3398 22.25 64.2998 22.42 64.4198 22.46C66.0598 22.91 67.7698 22.88 69.3898 23.46C71.0098 24.04 72.7598 24.73 74.3898 25.45C76.0198 26.17 77.4498 26.93 78.8798 27.83C80.1898 28.66 82.0498 29.63 82.3898 31.28L83.0298 30.44C77.7698 30.98 72.2998 31.13 67.2198 29.43C65.1498 28.74 63.1698 27.72 61.4398 26.39C59.5698 24.95 58.2998 23.13 56.9098 21.25C56.7098 20.97 56.1998 21.12 56.3198 21.5L56.3398 21.48Z" fill="#a7b99d"/>
<path d="M86.2699 21.21C86.0899 19.14 86.7799 16.89 87.6499 15.02C88.5199 13.15 89.7399 11.35 91.0999 9.75002C93.6599 6.72002 96.7799 4.09002 100.57 2.78002L99.9399 2.15002C98.9999 5.76002 98.0099 9.67002 95.4699 12.52C94.1299 14.02 92.4399 15.14 90.7899 16.26C88.8999 17.54 87.0299 18.87 85.1599 20.18C84.5999 20.57 85.1199 21.49 85.6999 21.11C87.6999 19.79 89.7199 18.48 91.6899 17.12C93.4099 15.94 95.1499 14.73 96.4999 13.12C99.0499 10.08 100.03 6.19002 100.92 2.42002C101 2.07002 100.68 1.66002 100.29 1.79002C96.1899 3.21002 92.8099 6.06002 90.0599 9.36002C88.6499 11.05 87.4099 12.87 86.5799 14.91C85.7499 16.95 85.6099 19.02 85.9899 21.24C86.0199 21.39 86.2799 21.36 86.2699 21.2V21.21Z" fill="#a7b99d"/>
<path d="M85.1298 21.17C86.4298 23.07 88.8798 23.88 91.0398 24.33C93.6898 24.89 96.4798 25.07 99.1798 24.96C104.81 24.72 110.29 23.24 115.31 20.7C115.75 20.48 115.74 19.89 115.46 19.57C113.97 17.89 111.5 17.43 109.39 17.03C106.98 16.58 104.51 16.37 102.05 16.41C99.5898 16.45 97.2798 16.74 94.9598 17.28C92.8398 17.78 89.9598 18.36 88.3398 19.92C88.1698 20.09 88.2898 20.43 88.5498 20.42C90.5398 20.29 92.5398 19.26 94.4898 18.8C96.7598 18.27 99.0798 17.95 101.41 17.86C103.74 17.77 105.93 17.9 108.16 18.28C110.39 18.66 112.74 19.07 114.45 20.59L114.6 19.46C109.95 21.8 104.84 23.19 99.6398 23.49C97.1898 23.63 94.7198 23.6 92.2898 23.27C89.8598 22.94 87.7498 22.04 85.5898 20.72C85.3198 20.56 84.9598 20.89 85.1498 21.16L85.1298 21.17Z" fill="#a7b99d"/>
<path d="M95.6599 16.3299C97.7299 15.6099 98.6799 13.5299 99.9299 11.8999C101.46 9.91994 103.28 8.09994 105.27 6.58994C109.26 3.54994 113.91 1.73994 118.86 1.07994C119.52 0.989944 119.56 -0.0500559 118.86 0.00994409C114.05 0.409944 109.31 2.29994 105.44 5.15994C103.54 6.55994 101.81 8.16994 100.36 10.0299C99.6299 10.9699 98.9699 11.9499 98.3599 12.9699C97.6299 14.2099 96.8999 15.4799 95.5599 16.1499C95.4499 16.1999 95.5299 16.3799 95.6399 16.3399L95.6599 16.3299Z" fill="#a7b99d"/>
<path d="M118.83 0.620005C117.94 2.52 117.25 4.44 115.99 6.15C114.73 7.86 113.06 9.38 111.28 10.6C109.28 11.97 107.08 13.05 104.83 13.95C103.69 14.41 102.53 14.82 101.37 15.22C100.4 15.55 99.2 15.74 98.48 16.52C98.3 16.72 98.35 17.11 98.65 17.17C99.8 17.38 101 16.74 102.07 16.37C103.34 15.92 104.61 15.45 105.86 14.93C108.17 13.97 110.43 12.84 112.46 11.37C114.23 10.09 115.82 8.58 117.12 6.82C118.42 5.06001 119.58 3.02 119.6 0.830005C119.6 0.440005 119.01 0.240005 118.83 0.620005Z" fill="#a7b99d"/>
<path d="M110.21 7.67005C110.36 7.60005 110.52 7.55005 110.66 7.46005C110.81 7.37005 110.95 7.26005 111.09 7.16005C111.37 6.97005 111.65 6.78005 111.93 6.57005C112.47 6.16005 113.04 5.78005 113.57 5.35005C113.73 5.22005 113.56 4.92005 113.36 5.00005C112.72 5.27005 112.13 5.62005 111.54 5.98005C111.24 6.16005 110.96 6.37005 110.69 6.59005C110.56 6.69005 110.43 6.79005 110.3 6.89005C110.16 7.01005 110.05 7.16005 109.93 7.31005C109.77 7.52005 109.96 7.78005 110.21 7.67005Z" fill="#a7b99d"/>
<path d="M86.9001 20.46C91.0101 21.84 95.7201 21.72 99.8801 20.61C100.06 20.56 99.9801 20.31 99.8101 20.34C97.6301 20.66 95.4601 20.84 93.2501 20.83C91.0401 20.82 89.0101 20.59 86.9101 20.38C86.8601 20.38 86.8501 20.45 86.9001 20.47V20.46Z" fill="#a7b99d"/>
<path d="M88.0399 18.64C89.2499 16.92 90.5899 15.25 92.0199 13.71C92.7099 12.96 93.4199 12.23 94.1599 11.53C94.8999 10.83 95.8599 10.17 96.5099 9.34003C96.7599 9.02003 96.4599 8.62003 96.0799 8.79003C95.1399 9.21003 94.3199 10.04 93.5699 10.72C92.7499 11.46 91.9699 12.23 91.2399 13.06C89.7999 14.7 88.5799 16.44 87.5399 18.36C87.3599 18.68 87.8199 18.94 88.0299 18.64H88.0399Z" fill="#a7b99d"/>
<path d="M58.98 22.24C61.32 23.13 63.43 24.44 65.61 25.65C67.79 26.86 69.83 27.64 72.26 27.57C72.52 27.57 72.52 27.19 72.26 27.17C69.75 26.94 67.39 25.61 65.24 24.39C64.2 23.8 63.16 23.19 62.06 22.71C61.12 22.3 60.03 21.84 58.98 22.04C58.87 22.06 58.89 22.21 58.98 22.24Z" fill="#a7b99d"/>
<path d="M49.72 19.31C51.86 18.39 53.82 17.12 55.85 15.98C56.82 15.43 57.81 14.92 58.84 14.47C59.38 14.23 59.94 14.03 60.51 13.86C61.08 13.69 61.7 13.59 62.25 13.37C62.61 13.22 62.55 12.74 62.16 12.7C61.08 12.58 59.83 13.06 58.84 13.44C57.73 13.87 56.68 14.43 55.64 15.02C53.54 16.23 51.51 17.59 49.29 18.58C48.78 18.81 49.22 19.54 49.72 19.32V19.31Z" fill="#a7b99d"/>
<path d="M25.7601 15.4201C26.7801 15.6001 27.5701 16.2801 28.3801 16.8801C29.3001 17.5701 30.2001 18.2801 31.0701 19.0201C32.7401 20.4301 34.3601 21.9001 35.9901 23.3401C36.1401 23.4801 36.3501 23.2701 36.2101 23.1201C34.6801 21.3501 32.9401 19.7701 31.1101 18.3101C30.2501 17.6201 29.3801 16.9601 28.4801 16.3201C27.6701 15.7401 26.8001 15.2301 25.7901 15.1401C25.6301 15.1301 25.6001 15.3901 25.7501 15.4201H25.7601Z" fill="#a7b99d"/>
<path d="M20.55 14.4C21.06 14.15 21.53 13.72 21.98 13.37C22.5 12.97 23.01 12.57 23.54 12.18C24.55 11.45 25.59 10.76 26.66 10.12C27.73 9.47998 28.75 8.90998 29.84 8.35998C30.98 7.78998 32.22 7.36998 33.32 6.73998C33.73 6.49998 33.45 5.90998 33.01 5.99998C31.82 6.25998 30.64 6.87998 29.54 7.40998C28.35 7.97998 27.18 8.59998 26.05 9.28998C24.92 9.97998 23.89 10.68 22.86 11.45C21.91 12.16 20.72 12.91 20.05 13.9C19.83 14.23 20.25 14.55 20.56 14.41L20.55 14.4Z" fill="#a7b99d"/>
<path d="M23.0597 13.5199C27.0397 13.9599 30.9897 14.2699 34.9397 13.3999C36.7497 12.9999 38.4897 12.3699 40.1997 11.6599C41.9097 10.9499 43.7497 10.3199 45.3997 9.45994C45.6697 9.31994 45.4697 8.94994 45.1997 8.98994C43.3997 9.30994 41.6597 10.1799 39.9597 10.8199C38.2597 11.4599 36.6197 12.0799 34.8797 12.4999C31.0497 13.4299 26.9697 13.3599 23.0497 13.3999C22.9697 13.3999 22.9697 13.5099 23.0497 13.5199H23.0597Z" fill="#a7b99d"/>
<path d="M45.5999 10.71C47.8399 10.71 47.8399 7.22998 45.5999 7.22998C43.3599 7.22998 43.3599 10.71 45.5999 10.71Z" fill="#a7b99d"/>
<path d="M71.83 23.23C73.79 23.93 75.93 24.11 77.98 24.34C80.03 24.57 82.22 24.62 84.36 24.59C84.58 24.59 84.65 24.22 84.41 24.19C82.35 23.91 80.29 23.6 78.22 23.38C76.15 23.16 73.99 22.76 71.88 22.82C71.65 22.82 71.61 23.14 71.83 23.22V23.23Z" fill="#a7b99d"/>
<path d="M37.1299 17.99C40.2099 20.46 43.3299 22.9 46.4499 25.32C49.5699 27.74 52.4999 30.15 55.6899 32.28C55.8799 32.41 56.1099 32.11 55.9299 31.96C53.0399 29.43 49.8699 27.17 46.8099 24.85C43.7499 22.53 40.4999 20.09 37.3099 17.76C37.1699 17.66 36.9999 17.89 37.1299 17.99Z" fill="#a7b99d"/>
<path d="M56.0397 34.2601C56.3097 34.2701 56.5597 34.2101 56.7997 34.0901C57.0397 34.0101 57.2497 33.8801 57.4297 33.6801C57.6197 33.5001 57.7597 33.2901 57.8397 33.0501C57.9597 32.8201 58.0197 32.5601 58.0097 32.2901L57.9397 31.7701C57.8497 31.4401 57.6797 31.1501 57.4397 30.9101L57.0397 30.6001C56.7297 30.4201 56.3997 30.3301 56.0497 30.3301C55.7797 30.3201 55.5297 30.3801 55.2897 30.5001C55.0497 30.5801 54.8397 30.7101 54.6597 30.9101C54.4697 31.0901 54.3297 31.3001 54.2497 31.5401C54.1297 31.7701 54.0697 32.0301 54.0797 32.3001L54.1497 32.8201C54.2397 33.1501 54.4097 33.4401 54.6497 33.6801L55.0497 33.9901C55.3597 34.1701 55.6897 34.2601 56.0397 34.2601Z" fill="#a7b99d"/>
</g>
<defs>
<clipPath id="clip0_674_2778">
<rect width="119.2" height="34.26" fill="white" transform="translate(0.399902)"/>
</clipPath>
</defs>
</svg>
